<?xml version="1.0" encoding="UTF-8"?>
<!-- Created with Inkscape (http://www.inkscape.org/) -->
<svg width="58" height="50" version="1.1" viewBox="0 0 58 50" xmlns="http://www.w3.org/2000/svg">
 <g>
  <path d="m5.7809 47.948c-3.4668-1.8306-5.7809-4.5388-5.7809-6.7654 0-0.92656 1.8787-1.5536 9-3.0036 4.9901-1.0161 4.3248-2.584-1.3743-3.2385-6.1354-0.70459-7.9826-2.8749-7.1835-8.4402 0.65045-4.5306 0.65152-4.2901-0.065173-14.674-0.47201-6.8386-0.3037-7.8996 1.5467-9.75 1.9992-1.9992 3.0788-2.0763 29.076-2.0763h27v21.905l-12.5 0.59544-0.5 8.5c-0.59736 10.155-2.9166 15.092-7.5365 16.043-1.6299 0.33544-3.9465 1.138-5.1478 1.7835-1.286 0.69101-6.4264 1.1555-12.5 1.1295-8.2637-0.035404-11.056-0.43485-14.035-2.008z" fill="#fba600"/>
  <path d="m5.7809 47.948c-3.4668-1.8306-5.7809-4.5388-5.7809-6.7654 0-0.92656 1.8787-1.5536 9-3.0036 4.9901-1.0161 4.3248-2.584-1.3743-3.2385-6.1354-0.70459-7.9826-2.8749-7.1835-8.4402 0.65045-4.5306 0.65152-4.2901-0.065173-14.674-0.47201-6.8386-0.3037-7.8996 1.5467-9.75 1.9992-1.9992 3.0788-2.0763 29.076-2.0763h27v21.905l-12.5 0.59544-0.5 8.5c-0.59736 10.155-2.9166 15.092-7.5365 16.043-1.6299 0.33544-3.9465 1.138-5.1478 1.7835-1.286 0.69101-6.4264 1.1555-12.5 1.1295-8.2637-0.035404-11.056-0.43485-14.035-2.008zm6.3896-37.553c0.61368-0.37928 3.3731-0.73573 6.1321-0.79212 4.5741-0.093494 5.1767-0.38901 6.8366-3.3525l1.8203-3.25h-9.9071c-9.5117 0-9.9898 0.10515-11.98 2.6349-1.1399 1.4492-2.0726 3.1612-2.0726 3.8045 0 1.2925 7.3808 2.0613 9.1705 0.9553zm30.33-0.39466c0.33992-0.55 3.2915-1 6.559-1 5.9344 0 5.941-0.0033113 5.941-3v-3l-9.75 0.031803c-9.8343 0.032078-12.235 0.76126-13.484 4.0963-0.33544 0.89548-0.10505 2.133 0.51197 2.75 1.3909 1.3909 9.3787 1.4861 10.222 0.12186z" fill="#f79600"/>
  <path d="m5.7809 47.948c-3.4668-1.8306-5.7809-4.5388-5.7809-6.7654 0-0.92656 1.8787-1.5536 9-3.0036 4.9901-1.0161 4.3248-2.584-1.3743-3.2385-6.1354-0.70459-7.9826-2.8749-7.1835-8.4402 0.65045-4.5306 0.65152-4.2901-0.065173-14.674-0.47201-6.8386-0.3037-7.8996 1.5467-9.75 1.9992-1.9992 3.0788-2.0763 29.076-2.0763h27v21.905l-12.5 0.59544-0.5 8.5c-0.59736 10.155-2.9166 15.092-7.5365 16.043-1.6299 0.33544-3.9465 1.138-5.1478 1.7835-1.286 0.69101-6.4264 1.1555-12.5 1.1295-8.2637-0.035404-11.056-0.43485-14.035-2.008zm14.485-32.644c1.7602-1.0146-0.66004-2.3035-4.3253-2.3035-2.8364 0-3.941-0.42041-3.941-1.5 0-1.1646 1.3252-1.5 5.9268-1.5 5.6502 0 6.0002-0.14715 7.5-3.1536 0.86528-1.7345 1.5732-3.3095 1.5732-3.5s-4.5-0.34636-10-0.34636c-8.7556 0-10.256 0.2557-12.055 2.0548-1.5546 1.5546-1.9806 3.0761-1.75 6.25 0.28543 3.9283 0.5275 4.2352 3.8048 4.8239 3.3683 0.60509 11.682 0.08792 13.266-0.82526zm34.494-0.30349c-0.20188-1.0829-1.8759-1.5834-6.0199-1.7999-4.1112-0.21479-5.7403-0.69729-5.7403-1.7001 0-1.0031 1.6305-1.4852 5.75-1.7001 5.6847-0.2965 5.7536-0.33679 6.0634-3.5499l0.31336-3.25h-10.235c-12.426 0-13.892 0.85614-13.892 8.1129v4.8029l7.75 0.33591c13.824 0.59917 16.319 0.40409 16.01-1.2518z" fill="#f58900"/>
  <path d="m5.7809 47.948c-3.4668-1.8306-5.7809-4.5388-5.7809-6.7654 0-0.92656 1.8787-1.5536 9-3.0036 4.9901-1.0161 4.3248-2.584-1.3743-3.2385-6.1354-0.70459-7.9826-2.8749-7.1835-8.4402 0.65045-4.5306 0.65152-4.2901-0.065173-14.674-0.47201-6.8386-0.3037-7.8996 1.5467-9.75 1.9992-1.9992 3.0788-2.0763 29.076-2.0763h27v21.905l-12.5 0.59544-0.5 8.5c-0.59736 10.155-2.9166 15.092-7.5365 16.043-1.6299 0.33544-3.9465 1.138-5.1478 1.7835-1.286 0.69101-6.4264 1.1555-12.5 1.1295-8.2637-0.035404-11.056-0.43485-14.035-2.008zm36.219-26.517c0-0.93998 1.8515-1.4238 6.25-1.6334 6.2497-0.2977 6.25-0.29788 6.5634-3.5477l0.31336-3.25h-6.0634c-4.723 0-6.0634-0.33159-6.0634-1.5 0-1.1667 1.3333-1.5 6-1.5h6v-7l-10.25 0.015313c-5.6375 0.00842-10.745 0.34592-11.35 0.75-2.3788 1.5884-3.5424 5.4339-2.8926 9.5596 1.0493 6.6617 2.6439 9.5487 5.4672 9.8983 3.6457 0.4514 6.0257-0.25644 6.0257-1.7921zm-17.355 0.050954c0.90664-2.3627-1.6635-7.4563-4.0219-7.9706-1.1679-0.25469-3.4734-0.58647-5.1234-0.73728-4.9021-0.44806-2.9681-2.2354 3.0018-2.7742 4.8516-0.43788 5.7236-0.85586 7.019-3.3643 0.81355-1.5754 1.4792-3.0379 1.4792-3.25s-4.5771-0.38569-10.171-0.38569c-12.185 0-13.829 0.91549-13.829 7.7004 0 6.3299 3.1788 9.2996 9.9545 9.2996 3.8182 0 5.0455 0.36486 5.0455 1.5 0 2.0468 5.859 2.0309 6.6453-0.01796z" fill="#ac6363"/>
  <path d="m6.5 47.888c-3.9342-2.0538-6.5-4.4632-6.5-6.1039 0-1.0434 4.4189-2.8646 8.9179-3.6754 4.9979-0.9007 5.2112-3.1087 0.30032-3.1087-5.4164 0-9.2182-3.0726-9.2182-7.4501 0-1.8177 0.66673-3.8583 1.4816-4.5346 1.3088-1.0862 1.3088-1.4763 0-3.345-0.94568-1.3501-1.4816-4.5039-1.4816-8.7185 0-5.624 0.3459-6.9281 2.3325-8.7944 2.2948-2.1558 2.7597-2.1869 28.75-1.9243l26.418 0.26693 0.56668 21.403-12.567 0.59717-0.50661 8.5c-0.31283 5.2486-1.1571 9.6924-2.2071 11.617-2.4951 4.5741-8.8997 6.6428-21.786 7.0374-9.0943 0.27841-11.036 0.041892-14.5-1.7667zm35.5-26.457c0-0.93998 1.8515-1.4238 6.25-1.6334 6.2497-0.2977 6.25-0.29788 6.5634-3.5477l0.31336-3.25h-6.0634c-4.723 0-6.0634-0.33159-6.0634-1.5 0-1.1667 1.3333-1.5 6-1.5h6v-7l-10.25 0.015313c-5.6375 0.00842-10.745 0.34592-11.35 0.75-2.3788 1.5884-3.5424 5.4339-2.8926 9.5596 1.0493 6.6617 2.6439 9.5487 5.4672 9.8983 3.6457 0.4514 6.0257-0.25644 6.0257-1.7921zm-17.355 0.050954c0.90664-2.3627-1.6635-7.4563-4.0219-7.9706-1.1679-0.25469-3.4734-0.58647-5.1234-0.73728-4.9021-0.44806-2.9681-2.2354 3.0018-2.7742 4.8516-0.43788 5.7236-0.85586 7.019-3.3643 0.81355-1.5754 1.4792-3.0379 1.4792-3.25s-4.5771-0.38569-10.171-0.38569c-12.185 0-13.829 0.91549-13.829 7.7004 0 6.3299 3.1788 9.2996 9.9545 9.2996 3.8182 0 5.0455 0.36486 5.0455 1.5 0 2.0468 5.859 2.0309 6.6453-0.01796z" fill="#f27700"/>
  <path d="m6.5 47.888c-3.9342-2.0538-6.5-4.4632-6.5-6.1039 0-1.0434 4.4189-2.8646 8.9179-3.6754 4.9979-0.9007 5.2112-3.1087 0.30032-3.1087-5.4164 0-9.2182-3.0726-9.2182-7.4501 0-1.8177 0.66673-3.8583 1.4816-4.5346 1.3088-1.0862 1.3088-1.4763 0-3.345-0.94568-1.3501-1.4816-4.5039-1.4816-8.7185 0-5.624 0.3459-6.9281 2.3325-8.7944 2.2948-2.1558 2.7597-2.1869 28.75-1.9243l26.418 0.26693 0.56668 21.403-12.567 0.59717-0.50661 8.5c-0.31283 5.2486-1.1571 9.6924-2.2071 11.617-2.4951 4.5741-8.8997 6.6428-21.786 7.0374-9.0943 0.27841-11.036 0.041892-14.5-1.7667zm17.954-18.261c2.9006-2.3209 2.9306-2.4418 1.671-6.745-2.4923-8.5147-3.2185-9.3514-8.4068-9.6866-3.3067-0.21364-4.7177-0.73702-4.7177-1.75 0-1.0827 1.3611-1.4452 5.4268-1.4452 5.0892 0 5.5246-0.19614 7-3.1536 0.86528-1.7345 1.5732-3.3095 1.5732-3.5s-4.5771-0.34636-10.171-0.34636c-12.28 0-13.837 0.89095-13.813 7.905 0.00842 2.5273 0.34592 5.0901 0.75 5.6953 1.3958 2.0904 5.1195 3.3997 9.6689 3.3997 3.3918 0 4.5657 0.38569 4.5657 1.5 0 1.1491-1.2698 1.5-5.4286 1.5-3.6727 0-5.953 0.52444-7.0499 1.6214-3.9236 3.9236 0.71403 7.3438 9.9785 7.3589 4.8168 0.0078 6.5825-0.45627 8.9536-2.3534zm17.979-4.3769 0.93249-5.25h11.635v-7h-6c-4.6667 0-6-0.33333-6-1.5s1.3333-1.5 6-1.5h6v-7l-10.25 0.015313c-5.6375 0.00842-10.745 0.34592-11.35 0.75-3.4281 2.289-4.4796 10.722-1.8997 15.235 0.78602 1.375 1.4451 4.375 1.4646 6.6667 0.03854 4.5319 0.91389 5.3269 5.5354 5.0276 2.7954-0.18104 3.0636-0.55227 3.9325-5.4443z" fill="#ec6600"/>
  <path d="m6.5 47.888c-3.9342-2.0538-6.5-4.4632-6.5-6.1039 0-1.0434 4.4189-2.8646 8.9179-3.6754 4.9979-0.9007 5.2112-3.1087 0.30032-3.1087-5.4164 0-9.2182-3.0726-9.2182-7.4501 0-1.8177 0.66673-3.8583 1.4816-4.5346 1.3088-1.0862 1.3088-1.4763 0-3.345-0.94568-1.3501-1.4816-4.5039-1.4816-8.7185 0-5.624 0.3459-6.9281 2.3325-8.7944 2.2948-2.1558 2.7597-2.1869 28.75-1.9243l26.418 0.26693 0.56668 21.403-12.567 0.59717-0.50661 8.5c-0.31283 5.2486-1.1571 9.6924-2.2071 11.617-2.4951 4.5741-8.8997 6.6428-21.786 7.0374-9.0943 0.27841-11.036 0.041892-14.5-1.7667zm34.5-11.888c1.619-1.619 2-3.3333 2-9v-7h12v-7h-6c-4.6667 0-6-0.33333-6-1.5s1.3333-1.5 6-1.5h6v-7l-10.25 0.015313c-5.6375 0.00842-10.745 0.34592-11.35 0.75-3.4281 2.289-4.4796 10.722-1.8997 15.235 0.78602 1.375 1.4451 4.7841 1.4646 7.5757 0.02884 4.1311-0.4241 5.5074-2.4337 7.3954-3.2699 3.0719-2.4317 4.029 3.5282 4.029 3.6076 0 5.4807-0.5397 6.941-2zm-16.415-4.7653c2.8593-1.9353 3.1638-4.5174 1.1949-10.132-2.6146-7.4567-3.2842-8.1023-8.4028-8.1023-3.2245 0-4.3776-0.3951-4.3776-1.5 0-1.1491 1.2696-1.5 5.4268-1.5 5.0892 0 5.5246-0.19614 7-3.1536 0.86528-1.7345 1.5732-3.3095 1.5732-3.5s-4.5771-0.34636-10.171-0.34636c-12.357 0-13.829 0.86351-13.829 8.116 0 6.6336 2.4753 8.884 9.7719 8.884 7.4526 0 6.6077 2.3913-0.98803 2.7965-3.9491 0.21069-6.0632 0.85463-7.3028 2.2244-1.6306 1.8018-1.6365 2.093-0.08982 4.4535 1.5619 2.3838 2.145 2.5248 10.382 2.5103 4.7998-0.0084 9.2154-0.34592 9.8124-0.75z" fill="#eb5600"/>
  <path d="m6.5 47.888c-3.9342-2.0538-6.5-4.4632-6.5-6.1039 0-1.0434 4.4189-2.8646 8.9179-3.6754 4.9979-0.9007 5.2112-3.1087 0.30032-3.1087-5.4164 0-9.2182-3.0726-9.2182-7.4501 0-1.8177 0.66673-3.8583 1.4816-4.5346 1.3088-1.0862 1.3088-1.4763 0-3.345-0.94568-1.3501-1.4816-4.5039-1.4816-8.7185 0-5.624 0.3459-6.9281 2.3325-8.7944 2.2948-2.1558 2.7597-2.1869 28.75-1.9243l26.418 0.26693 0.56668 21.403-12.567 0.59717-0.50661 8.5c-0.31283 5.2486-1.1571 9.6924-2.2071 11.617-2.4951 4.5741-8.8997 6.6428-21.786 7.0374-9.0943 0.27841-11.036 0.041892-14.5-1.7667zm33.75-9.2447c2.3373-3.6997 2.75-5.4255 2.75-11.498v-7.1451h12v-7h-6c-4.6667 0-6-0.33333-6-1.5s1.3333-1.5 6-1.5h6v-7l-10.25 0.015313c-5.6375 0.00842-10.745 0.34592-11.35 0.75-3.4281 2.289-4.4796 10.722-1.8997 15.235 1.6794 2.9378 1.9425 10.305 0.46656 13.062-1.3673 2.5549-8.1284 5.9375-11.868 5.9375-1.6395 0-3.2375 0.41538-3.5513 0.92306-0.31377 0.50768-1.9193 1.2193-3.5677 1.5814-6.3362 1.3917-1.3216 2.4955 11.329 2.4938l13.191-0.001788zm-15.665-7.4087c2.8593-1.9353 3.1638-4.5174 1.1949-10.132-2.6146-7.4567-3.2842-8.1023-8.4028-8.1023-3.2245 0-4.3776-0.3951-4.3776-1.5 0-1.1491 1.2696-1.5 5.4268-1.5 5.0892 0 5.5246-0.19614 7-3.1536 0.86528-1.7345 1.5732-3.3095 1.5732-3.5s-4.5771-0.34636-10.171-0.34636c-12.357 0-13.829 0.86351-13.829 8.116 0 6.6336 2.4753 8.884 9.7719 8.884 7.3454 0 6.6348 2.3815-0.83863 2.8105-5.1645 0.29645-8.9333 2.2016-8.9333 4.5157 0 0.55895 0.74474 1.8392 1.655 2.845 1.3612 1.5041 3.1806 1.826 10.25 1.8134 4.7273-0.0084 9.0835-0.34592 9.6805-0.75z" fill="#cd6e00"/>
  <path d="m6.5 47.888c-3.9342-2.0538-6.5-4.4632-6.5-6.1039 0-1.0434 4.4189-2.8646 8.9179-3.6754 4.9979-0.9007 5.2112-3.1087 0.30032-3.1087-5.4164 0-9.2182-3.0726-9.2182-7.4501 0-1.8177 0.66673-3.8583 1.4816-4.5346 1.3088-1.0862 1.3088-1.4763 0-3.345-0.94568-1.3501-1.4816-4.5039-1.4816-8.7185 0-5.624 0.3459-6.9281 2.3325-8.7944 2.2948-2.1558 2.7597-2.1869 28.75-1.9243l26.418 0.26693 0.56668 21.403-12.567 0.59717-0.50661 8.5c-0.31283 5.2486-1.1571 9.6924-2.2071 11.617-2.4951 4.5741-8.8997 6.6428-21.786 7.0374-9.0943 0.27841-11.036 0.041892-14.5-1.7667zm33.75-9.2447c2.3373-3.6997 2.75-5.4255 2.75-11.498v-7.1451h5.9809c5.5539 0 6.026-0.17942 6.6117-2.513 0.98416-3.9212-1.0747-5.487-7.2151-5.487-2.9577 0-5.3776-0.45-5.3776-1 0-0.55613 2.6771-1 6.0314-1 6.5681 0 7.7-0.94974 6.5574-5.5022-0.6164-2.4559-0.79486-2.4978-10.653-2.4978-9.312 0-10.201 0.1749-12.481 2.4545-1.9948 1.9948-2.4545 3.4574-2.4545 7.8089 0 3.1598 0.60176 6.1499 1.4682 7.2955 1.7052 2.2544 2.0017 9.6946 0.49837 12.504-1.3673 2.5549-8.1284 5.9375-11.868 5.9375-1.6395 0-3.2375 0.41538-3.5513 0.92306-0.31377 0.50768-1.9193 1.2193-3.5677 1.5814-6.3362 1.3917-1.3216 2.4955 11.329 2.4938l13.191-0.001788zm-15.65-7.4087c2.7166-1.8139 3.5012-5.1377 1.9301-8.176-0.84169-1.6277-1.5304-3.8491-1.5304-4.9365 0-2.8185-4.6596-6.1222-8.6349-6.1222-1.8508 0-3.3651-0.45-3.3651-1 0-0.55171 2.5997-1 5.7991-1 5.6603 0 5.8279-0.079504 7-3.321 0.66049-1.8265 1.2009-3.6265 1.2009-4 0-1.1339-17.733-0.758-20.343 0.43127-5.0151 2.2851-6.2514 10.387-2.2028 14.435 2.0246 2.0246 3.4404 2.4545 8.0833 2.4545 6.8953 0 7.223 2.3559 0.3844 2.7637-2.4323 0.14505-5.4048 0.48359-6.6056 0.75232-3.0145 0.6746-3.9399 4.1378-1.7518 6.5556 1.4681 1.6222 3.1095 1.9259 10.34 1.913 4.7273-0.0084 9.0901-0.34592 9.6953-0.75z" fill="#e94d00"/>
  <path d="m6.5 47.888c-3.9342-2.0538-6.5-4.4632-6.5-6.1039 0-1.0434 4.4189-2.8646 8.9179-3.6754 4.9979-0.9007 5.2112-3.1087 0.30032-3.1087-5.4164 0-9.2182-3.0726-9.2182-7.4501 0-1.8177 0.66673-3.8583 1.4816-4.5346 1.3088-1.0862 1.3088-1.4763 0-3.345-0.94568-1.3501-1.4816-4.5039-1.4816-8.7185 0-5.624 0.3459-6.9281 2.3325-8.7944 2.2948-2.1558 2.7597-2.1869 28.75-1.9243l26.418 0.26693 0.56668 21.403-12.567 0.59717-0.50661 8.5c-0.31283 5.2486-1.1571 9.6924-2.2071 11.617-2.4951 4.5741-8.8997 6.6428-21.786 7.0374-9.0943 0.27841-11.036 0.041892-14.5-1.7667zm25.492-2.4811c5.6081-1.9525 6.6798-2.8435 9.081-7.5502 1.3624-2.6705 1.9269-5.8395 1.9269-10.817v-7.0398h5.9809c5.5539 0 6.026-0.17942 6.6117-2.513 0.98416-3.9212-1.0747-5.487-7.2151-5.487-2.9577 0-5.3776-0.45-5.3776-1 0-0.55613 2.6771-1 6.0314-1 6.5681 0 7.7-0.94974 6.5574-5.5022-0.6164-2.4559-0.79486-2.4978-10.653-2.4978-9.312 0-10.201 0.1749-12.481 2.4545-1.9948 1.9948-2.4545 3.4574-2.4545 7.8089 0 3.1598 0.60176 6.1499 1.4682 7.2955 1.7052 2.2544 2.0017 9.6946 0.49837 12.504-1.2502 2.3359-8.0096 5.9334-11.177 5.9483-5.1526 0.024357-14.79 3.9125-14.79 5.967 0 2.8897 18.824 3.9247 25.992 1.4292zm-7.3918-14.172c2.7166-1.8139 3.5012-5.1377 1.9301-8.176-0.84169-1.6277-1.5304-3.8491-1.5304-4.9365 0-2.8185-4.6596-6.1222-8.6349-6.1222-1.8508 0-3.3651-0.45-3.3651-1 0-0.55171 2.5997-1 5.7991-1 5.6603 0 5.8279-0.079504 7-3.321 0.66049-1.8265 1.2009-3.6265 1.2009-4 0-1.1339-17.733-0.758-20.343 0.43127-5.0151 2.2851-6.2514 10.387-2.2028 14.435 2.0246 2.0246 3.4404 2.4545 8.0833 2.4545 6.8953 0 7.223 2.3559 0.3844 2.7637-2.4323 0.14505-5.4048 0.48359-6.6056 0.75232-3.0145 0.6746-3.9399 4.1378-1.7518 6.5556 1.4681 1.6222 3.1095 1.9259 10.34 1.913 4.7273-0.0084 9.0901-0.34592 9.6953-0.75z" fill="#cc4f00"/>
  <path d="m6.5 47.888c-3.9342-2.0538-6.5-4.4632-6.5-6.1039 0-1.0434 4.4189-2.8646 8.9179-3.6754 4.9979-0.9007 5.2112-3.1087 0.30032-3.1087-5.4164 0-9.2182-3.0726-9.2182-7.4501 0-1.8177 0.66673-3.8583 1.4816-4.5346 1.3088-1.0862 1.3088-1.4763 0-3.345-0.94568-1.3501-1.4816-4.5039-1.4816-8.7185 0-5.624 0.3459-6.9281 2.3325-8.7944 2.2948-2.1558 2.7597-2.1869 28.75-1.9243l26.418 0.26693 0.56668 21.403-12.567 0.59717-0.50661 8.5c-0.31283 5.2486-1.1571 9.6924-2.2071 11.617-2.4951 4.5741-8.8997 6.6428-21.786 7.0374-9.0943 0.27841-11.036 0.041892-14.5-1.7667zm26.391-2.8481c2.9495-1.0781 5.4753-2.0906 5.613-2.25s1.2056-2.1844 2.3732-4.5c1.5601-3.0939 2.1229-6.064 2.1229-11.202v-6.9921l6.25-0.29772c5.6604-0.26963 6.2808-0.51518 6.5768-2.6028 0.5339-3.7662-1.5148-5.195-7.4492-5.195-2.9577 0-5.3776-0.45-5.3776-1 0-0.55613 2.6771-1 6.0314-1 6.5681 0 7.7-0.94974 6.5574-5.5022-0.6164-2.4559-0.79486-2.4978-10.653-2.4978-9.312 0-10.201 0.1749-12.481 2.4545-2.001 2.001-2.448 3.433-2.4191 7.75 0.01949 2.9125 0.67854 6.4205 1.4646 7.7955 2.2738 3.9776 1.9016 10.284-0.75 12.709-3.0824 2.8184-8.1797 5.2883-10.95 5.3058-4.5333 0.028689-13.8 4.0005-13.8 5.9148 0 3.2743 18.842 4.0524 26.891 1.1105zm-9.4437-13.02c3.8516-1.4644 5.1205-5.0217 3.1502-8.8318-0.87855-1.6989-1.5974-3.9786-1.5974-5.066 0-2.8185-4.6596-6.1222-8.6349-6.1222-1.8508 0-3.3651-0.45-3.3651-1 0-0.55171 2.5997-1 5.7991-1 5.6603 0 5.8279-0.079504 7-3.321 0.66049-1.8265 1.2009-3.6265 1.2009-4 0-1.1339-17.733-0.758-20.343 0.43127-5.0151 2.2851-6.2514 10.387-2.2028 14.435 1.9574 1.9574 3.4764 2.4545 7.5 2.4545 2.775 0 5.0455 0.45 5.0455 1s-1.7788 1-3.9529 1c-4.5935 0-8.6894 1.6256-9.5147 3.7763-0.88193 2.2983 0.26679 4.8195 2.7397 6.013 2.8355 1.3685 13.795 1.5158 17.175 0.23076z" fill="#b54e00"/>
  <path d="m6.5 47.888c-3.9342-2.0538-6.5-4.4632-6.5-6.1039 0-1.0434 4.4189-2.8646 8.9179-3.6754 4.9979-0.9007 5.2112-3.1087 0.30032-3.1087-5.4164 0-9.2182-3.0726-9.2182-7.4501 0-1.8177 0.66673-3.8583 1.4816-4.5346 1.3088-1.0862 1.3088-1.4763 0-3.345-0.94568-1.3501-1.4816-4.5039-1.4816-8.7185 0-5.624 0.3459-6.9281 2.3325-8.7944 2.2948-2.1558 2.7597-2.1869 28.75-1.9243l26.418 0.26693 0.56668 21.403-12.567 0.59717-0.50661 8.5c-0.31283 5.2486-1.1571 9.6924-2.2071 11.617-2.4951 4.5741-8.8997 6.6428-21.786 7.0374-9.0943 0.27841-11.036 0.041892-14.5-1.7667zm26.391-2.8481c2.9495-1.0781 5.4753-2.0906 5.613-2.25s1.2056-2.1844 2.3732-4.5c1.5601-3.0939 2.1229-6.064 2.1229-11.202v-6.9921l12.5-0.59544v-7l-6.25-0.29772c-3.4375-0.16374-6.25-0.70477-6.25-1.2023s2.8125-1.0385 6.25-1.2023l6.25-0.29772v-7l-10.397-0.2866c-9.5634-0.26363-10.585-0.10943-12.75 1.9243-1.9369 1.8196-2.3471 3.1978-2.318 7.7866 0.01949 3.0666 0.67854 6.7007 1.4646 8.0757 2.2738 3.9776 1.9016 10.284-0.75 12.709-3.0824 2.8184-8.1797 5.2883-10.95 5.3058-4.5333 0.028689-13.8 4.0005-13.8 5.9148 0 3.2743 18.842 4.0524 26.891 1.1105zm-7.2403-14.6c2.7498-2.7498 2.7411-3.5614-0.12195-11.44-2.016-5.5477-3.8251-7-8.7198-7-2.0949 0-3.8089-0.45-3.8089-1 0-0.55202 2.6049-1 5.8148-1 5.6277 0 5.8669-0.10934 7.4352-3.3981 0.89124-1.869 1.3496-3.669 1.0185-4-0.33104-0.33104-5.0474-0.6019-10.481-0.6019-9.1553 0-10.059 0.17977-12.333 2.4545-3.1641 3.1641-3.3411 9.1486-0.38197 12.911 1.7842 2.2682 2.8277 2.6349 7.5 2.6349 2.9851 0 5.4274 0.45 5.4274 1s-2.2001 1-4.8892 1c-6.1915 0-9.7111 2.4719-8.7833 6.1688 0.87654 3.4924 3.9979 4.685 12.468 4.7636 6.5411 0.06068 7.5601-0.19701 9.8552-2.492z" fill="#c53800"/>
  <path d="m6.5 47.888c-3.9342-2.0538-6.5-4.4632-6.5-6.1039 0-1.0434 4.4189-2.8646 8.9179-3.6754 4.9979-0.9007 5.2112-3.1087 0.30032-3.1087-5.4164 0-9.2182-3.0726-9.2182-7.4501 0-1.8177 0.66673-3.8583 1.4816-4.5346 1.3088-1.0862 1.3088-1.4763 0-3.345-0.94568-1.3501-1.4816-4.5039-1.4816-8.7185 0-5.624 0.3459-6.9281 2.3325-8.7944 2.2948-2.1558 2.7597-2.1869 28.75-1.9243l26.418 0.26693 0.56668 21.403-12.567 0.59717-0.50661 8.5c-0.31283 5.2486-1.1571 9.6924-2.2071 11.617-2.4951 4.5741-8.8997 6.6428-21.786 7.0374-9.0943 0.27841-11.036 0.041892-14.5-1.7667zm25.99-2.256c8.1473-3.0064 10.47-6.9542 10.493-17.834l0.01645-7.7023 12.5-0.59544v-7l-6.25-0.29772c-3.4375-0.16374-6.25-0.70477-6.25-1.2023s2.8125-1.0385 6.25-1.2023l6.25-0.29772v-7l-10.397-0.2866c-9.5634-0.26363-10.585-0.10943-12.75 1.9243-1.9369 1.8196-2.3471 3.1978-2.318 7.7866 0.01949 3.0666 0.67854 6.7007 1.4646 8.0757s1.4451 4.3725 1.4646 6.6611c0.02931 3.4418-0.49652 4.6087-3.0416 6.7503-1.6924 1.4241-4.0549 2.7868-5.25 3.0282s-3.2979 0.64574-4.6729 0.89838c-1.375 0.25264-4.075 1.0222-6 1.7102-9.4387 3.3733-10.141 4.7159-3.75 7.1715 6.0133 2.3106 15.032 2.0722 22.24-0.58773zm-6.8396-15.192c2.7498-2.7498 2.7411-3.5614-0.12195-11.44-2.016-5.5477-3.8251-7-8.7198-7-2.0949 0-3.8089-0.45-3.8089-1 0-0.55202 2.6049-1 5.8148-1 5.6277 0 5.8669-0.10934 7.4352-3.3981 0.89124-1.869 1.3496-3.669 1.0185-4-0.33104-0.33104-5.0474-0.6019-10.481-0.6019-9.1553 0-10.059 0.17977-12.333 2.4545-3.1641 3.1641-3.3411 9.1486-0.38197 12.911 1.7842 2.2682 2.8277 2.6349 7.5 2.6349 2.9851 0 5.4274 0.45 5.4274 1s-2.2001 1-4.8892 1c-6.1915 0-9.7111 2.4719-8.7833 6.1688 0.87654 3.4924 3.9979 4.685 12.468 4.7636 6.5411 0.06068 7.5601-0.19701 9.8552-2.492z" fill="#952d2d"/>
  <path d="m6.999 48.093c-4.0844-2.1992-7.617-5.8081-6.6408-6.7842 1.1049-1.1049 7.9592-3.2772 10.392-3.2935 1.3266-0.008877 2.25-0.63063 2.25-1.5151 0-1.0861-1.1162-1.5-4.0455-1.5-7.0487 0-11.167-6.3966-7.494-11.64 1.2677-1.8099 1.2719-2.3345 0.031803-3.9725-0.877-1.1584-1.4411-4.3185-1.4606-8.1827-0.027209-5.386 0.32518-6.6524 2.4394-8.7667l2.4712-2.4712 52.558 0.53332v21l-12.5 0.59544-0.01645 7.7023c-0.031619 14.804-5.5805 19.31-24.484 19.879-8.2812 0.24945-10.602-0.022785-13.501-1.5839zm25.491-2.4608c8.1473-3.0064 10.47-6.9542 10.493-17.834l0.01645-7.7023 12.5-0.59544v-7l-6.25-0.29772c-3.4375-0.16374-6.25-0.70477-6.25-1.2023s2.8125-1.0385 6.25-1.2023l6.25-0.29772v-7l-10.397-0.2866c-9.5634-0.26363-10.585-0.10943-12.75 1.9243-1.9369 1.8196-2.3471 3.1978-2.318 7.7866 0.01949 3.0666 0.67854 6.7007 1.4646 8.0757s1.4451 4.3725 1.4646 6.6611c0.02931 3.4418-0.49652 4.6087-3.0416 6.7503-1.6924 1.4241-4.0549 2.7868-5.25 3.0282s-3.2979 0.64574-4.6729 0.89838c-1.375 0.25264-4.075 1.0222-6 1.7102-9.4387 3.3733-10.141 4.7159-3.75 7.1715 6.0133 2.3106 15.032 2.0722 22.24-0.58773zm-6.8396-15.192c2.7498-2.7498 2.7411-3.5614-0.12195-11.44-2.016-5.5477-3.8251-7-8.7198-7-2.0949 0-3.8089-0.45-3.8089-1 0-0.55202 2.6049-1 5.8148-1 5.6277 0 5.8669-0.10934 7.4352-3.3981 0.89124-1.869 1.3496-3.669 1.0185-4-0.33104-0.33104-5.0474-0.6019-10.481-0.6019-9.1553 0-10.059 0.17977-12.333 2.4545-3.1641 3.1641-3.3411 9.1486-0.38197 12.911 1.7842 2.2682 2.8277 2.6349 7.5 2.6349 2.9851 0 5.4274 0.45 5.4274 1s-2.2001 1-4.8892 1c-6.1915 0-9.7111 2.4719-8.7833 6.1688 0.87654 3.4924 3.9979 4.685 12.468 4.7636 6.5411 0.06068 7.5601-0.19701 9.8552-2.492z" fill="#b43400"/>
  <path d="m6.999 48.093c-4.0844-2.1992-7.617-5.8081-6.6408-6.7842 1.1049-1.1049 7.9592-3.2772 10.392-3.2935 1.3266-0.008877 2.25-0.63063 2.25-1.5151 0-1.0861-1.1162-1.5-4.0455-1.5-7.0487 0-11.167-6.3966-7.494-11.64 1.2677-1.8099 1.2719-2.3345 0.031803-3.9725-0.877-1.1584-1.4411-4.3185-1.4606-8.1827-0.027209-5.386 0.32518-6.6524 2.4394-8.7667l2.4712-2.4712 52.558 0.53332v21l-12.5 0.59544-0.01645 7.7023c-0.031619 14.804-5.5805 19.31-24.484 19.879-8.2812 0.24945-10.602-0.022785-13.501-1.5839zm25.001-2.0416c5.8116-2.1882 6.4225-2.6307 8.5-6.1567 1.3714-2.3276 2.1572-5.9088 2.5-11.394l0.5-8 12.615-0.59842-0.61486-7.4016-6.2791-0.29847c-7.981-0.37937-7.2373-2.2015 0.89844-2.2015h6.0013l-0.31037-3.75-0.31036-3.75-10.397-0.2866c-9.5634-0.26363-10.585-0.10943-12.75 1.9243-1.9806 1.8607-2.3478 3.1733-2.318 8.2866 0.01965 3.369 0.6721 7.1894 1.4646 8.5757 4.292 7.5081-0.22276 14.112-11 16.09-5.4407 0.99859-12.688 3.7345-14.44 5.451-1.632 1.599-1.7515 1.4481 2.9405 3.7138 4.1652 2.0114 17.429 1.8939 23-0.20378zm-6.4545-15.506c2.7796-2.7796 3.02-4.9323 0.95454-8.5455-0.78602-1.375-1.4451-3.487-1.4646-4.6933-0.048042-2.9736-3.6787-5.3067-8.2579-5.3067-2.0776 0-3.7775-0.45-3.7775-1 0-0.55202 2.6049-1 5.8148-1 5.6277 0 5.8669-0.10934 7.4352-3.3981 0.89124-1.869 1.3496-3.669 1.0185-4-0.33104-0.33104-5.0474-0.6019-10.481-0.6019-9.1553 0-10.059 0.17977-12.333 2.4545-1.8549 1.8549-2.4545 3.5189-2.4545 6.8114 0 6.3984 2.5509 8.734 9.539 8.734 3.0036 0 5.461 0.45 5.461 1s-2.0546 1-4.5657 1c-5.1901 0-7.9155 1.1621-9.4501 4.0296-0.86481 1.6159-0.59934 2.4461 1.4316 4.4771 2.2469 2.2469 3.293 2.4933 10.584 2.4933 7.257 0 8.3439-0.25298 10.545-2.4545z" fill="#932900"/>
  <path d="m6.999 48.093c-4.0844-2.1992-7.617-5.8081-6.6408-6.7842 1.1049-1.1049 7.9592-3.2772 10.392-3.2935 1.3266-0.008877 2.25-0.63063 2.25-1.5151 0-1.0861-1.1162-1.5-4.0455-1.5-7.0487 0-11.167-6.3966-7.494-11.64 1.2677-1.8099 1.2719-2.3345 0.031803-3.9725-0.877-1.1584-1.4411-4.3185-1.4606-8.1827-0.027209-5.386 0.32518-6.6524 2.4394-8.7667l2.4712-2.4712 52.558 0.53332v21l-12.5 0.59544-0.01645 7.7023c-0.031619 14.804-5.5805 19.31-24.484 19.879-8.2812 0.24945-10.602-0.022785-13.501-1.5839zm23.35-1.499c1.7331-0.7734 4.2807-1.6549 5.6612-1.9588 4.1454-0.91273 6.4237-6.0086 6.9899-15.635l0.5-8.5 12.5-0.59544v-7.9046h-6c-3.3333 0-6-0.44444-6-1s2.6667-1 6-1h6v-8h-11c-9.8059 0-11.226 0.22567-13.079 2.079-1.8516 1.8516-2.0133 2.8634-1.4788 9.25 0.33008 3.9441 0.70311 9.8539 0.82896 13.133l0.22882 5.962-4 2.2716c-2.2 1.2494-5.6015 2.279-7.5589 2.288-1.9574 9e-3 -4.4324 0.67714-5.5 1.4846-1.0676 0.80751-2.8839 1.4825-4.0361 1.5-1.8807 0.02855-6.3252 3.6409-5.3155 4.3203 5.5317 3.7223 19.274 4.9764 25.259 2.3053zm-4.6633-15.768c2.7444-2.5782 2.8532-4.3027 0.6892-10.919-1.9173-5.8617-4.415-7.9069-9.6563-7.9069-2.303 0-3.5895-0.39971-3.2185-1 0.33992-0.55 3.2915-1 6.559-1 5.2141 0 5.941-0.23748 5.941-1.941 0-1.0675 0.45-2.2191 1-2.559s1-1.2665 1-2.059c0-1.1647-2.0485-1.441-10.686-1.441-9.5948 0-10.922 0.22195-13 2.1743-1.7692 1.6621-2.3145 3.2588-2.3145 6.7775 0 6.9726 1.9493 9.0482 8.4977 9.0482 2.9614 0 5.6624 0.45 6.0023 1 0.3828 0.61938-1.4315 1-4.7667 1-4.4069 0-5.7986 0.44053-7.6638 2.426-2.3098 2.4586-2.2088 3.3933 0.73755 6.824 1.213 1.4125 3.1483 1.75 10.033 1.75 7.3822 0 8.8421-0.29269 10.845-2.1743z" fill="#871900"/>
  <path d="m6.243 47.355c-5.2034-3.0709-7.1886-6.113-4.5362-6.951 0.98622-0.31158 2.8268-0.97991 4.0902-1.4852 1.2634-0.50526 3.4009-0.91864 4.75-0.91864 4.6109 0 2.7423-2.7073-2.2576-3.2708-7.2936-0.82209-10.445-6.2073-6.7328-11.507 1.4089-2.0115 1.4089-2.4335 0-4.445-0.97626-1.3938-1.5567-4.3937-1.5567-8.0455 0-4.8597 0.40879-6.2317 2.4712-8.2942l2.4712-2.4712 52.558 0.53332v21l-12.5 0.59544-0.01645 7.7023c-0.031682 14.834-5.6219 19.36-24.484 19.824-9.1241 0.22432-10.373 0.025787-14.257-2.2665zm26.757-1.2922c7.6319-2.5978 9.9608-6.6253 9.9836-17.265l0.01645-7.7023 12.5-0.59544 0.615-8.5-12.615-0.33622 12-1.1638 0.615-8.5h-11.403c-14.556 0-15.204 0.50531-14.361 11.202 0.31613 4.0138 0.8655 8.9841 1.2208 11.045 0.35531 2.061 0.38595 4.7835 0.06809 6.0499-0.65508 2.61-6.0408 5.6129-12.14 6.7689-8.1332 1.5415-14.419 4.5805-14.485 7.0025-0.0084221 0.31272 1.4472 1.2964 3.2347 2.186 4.6455 2.312 17.691 2.2107 24.75-0.19207zm-6.902-15.161c2.1324-2.1324 2.1513-2.7645 0.34751-11.574-0.88667-4.3301-4.1624-7.1095-8.9455-7.5903-3.2683-0.3285-2.9506-0.4328 1.7366-0.57015 5.5916-0.16385 5.7748-0.25965 7.25-3.7902 0.83238-1.9922 1.5134-4.0172 1.5134-4.5 0-0.48283-4.8085-0.87788-10.686-0.87788-9.5948 0-10.922 0.22195-13 2.1743-1.8405 1.7291-2.3145 3.2331-2.3145 7.345 0 6.685 2.1234 8.75 9.8509 9.5799l5.6491 0.6067-5.4355 0.14702c-4.0679 0.11003-6.0179 0.69411-7.75 2.3213-2.8652 2.6917-2.8845 3.5899-0.14014 6.5112 1.9542 2.0802 3.0676 2.3145 11 2.3145 7.6297 0 9.11-0.28429 10.924-2.098z" fill="#810301"/>
  <path d="m7 47.436c-2.475-1.3968-5.0593-3.273-5.7429-4.1693-1.0727-1.4065-0.73046-1.8213 2.5-3.0297 2.0586-0.77003 4.6429-1.5265 5.7429-1.681s1.2684-0.0939 0.37427 0.13469c-2.3511 0.60105-6.196 4.9795-5.4429 6.198 1.1125 1.8001 7.7884 3.0997 15.953 3.1055 8.9958 0.0064 15.11-1.438 18.366-4.3386 1.5083-1.3437 2.25-1.5712 2.25-0.69035 0 1.7789-3.0343 3.9638-5.5589 4.0028-1.1324 0.01749-2.9324 0.69249-4 1.5-1.3674 1.0342-4.6013 1.474-10.941 1.488-7.8111 0.017148-9.5945-0.31574-13.5-2.5199zm6-11.336c0-1.6582-0.77613-2.0414-4.6494-2.2953-3.7257-0.24424-5.0595-0.8561-6.7139-3.0798-2.0228-2.7189-2.0276-2.8437-0.23695-6.1687 1.6933-3.1442 1.709-3.563 0.21393-5.6975-1.0258-1.4645-1.6137-4.3763-1.6137-7.9924 0-5.1325 0.30273-5.9433 3.0966-8.2942l3.0966-2.6056 51.307 0.53337v21l-12.5 0.59544-0.06339 7.7023c-0.04433 5.3866-0.32417 7.0559-0.9308 5.5522-0.47708-1.1825-0.77615-4.7825-0.6646-8l0.20281-5.85 12.456-0.59544v-8.8091l-12.5-0.71008 12.5-0.38536v-9h-10.935c-6.0142 0-12.192 0.47808-13.729 1.0624-1.9723 0.74986-2.8985 0.74986-3.1484 0-0.51533-1.546-23.43-1.4198-24.987 0.13761-1.2725 1.2725-1.692 12.975-0.50756 14.159 1.2257 1.2257 1.3677 4.8635 0.24278 6.219-1.2248 1.4758-0.99082 6.2627 0.39944 8.1719 0.62202 0.8542 4.0379 1.25 10.788 1.25 7.9069 0 9.8776 0.28582 9.8776 1.4326 0 1.5118-1.1687 1.9995-7.25 3.0254-3.2893 0.5549-3.75 0.38807-3.75-1.3579zm15.667-6.7668c-0.36667-0.36667-0.66667-1.9417-0.66667-3.5 0-2.1667 0.47059-2.8333 2-2.8333 1.619 0 2 0.66667 2 3.5 0 3.2939-1.5528 4.6138-3.3333 2.8333zm-20.417-8.0496c1.5125-0.22912 3.9875-0.22912 5.5 0 1.5125 0.22912 0.275 0.41659-2.75 0.41659s-4.2625-0.18747-2.75-0.41659zm17.75-3.3132c0-1.0189-0.45734-2.1352-1.0163-2.4806-0.55897-0.34546-0.77663-1.0159-0.48369-1.4899s0.0058-1.1874-0.6382-1.5854c-0.80071-0.49487-0.90324-0.27963-0.32435 0.6809 0.67784 1.1247 0.55669 1.1703-0.60817 0.22902-0.80005-0.64652-3.2489-1.3584-5.442-1.5819-3.2807-0.33439-2.9771-0.4362 1.713-0.57451 3.2962-0.09721 6.0376-0.69529 6.5-1.4181 0.43983-0.6875 1.6094-1.8861 2.5991-2.6635 1.7-1.3354 1.7829-1.0365 1.5 5.408-0.24567 5.5971-0.61352 6.867-2.0494 7.075-1.1281 0.16341-1.75-0.40482-1.75-1.599z" fill="#7d0000"/>
 </g>
</svg>
