<?xml version="1.0" encoding="UTF-8"?>
<!-- Created with Inkscape (http://www.inkscape.org/) -->
<svg width="25" height="25" version="1.1" viewBox="1 0 23 23" xmlns="http://www.w3.org/2000/svg">
 <g fill-opacity="0">
  <path d="m24 24h1v1h-1" display="none"/>
  <path d="m23 24h1v1h-1" display="none"/>
  <path d="m22 24h1v1h-1" display="none"/>
  <path d="m21 24h1v1h-1" display="none"/>
  <path d="m20 24h1v1h-1" display="none"/>
  <path d="m19 24h1v1h-1" display="none"/>
  <path d="m18 24h1v1h-1" display="none"/>
  <path d="m17 24h1v1h-1" display="none"/>
  <path d="m16 24h1v1h-1" display="none"/>
  <path d="m15 24h1v1h-1" display="none"/>
  <path d="m14 24h1v1h-1" display="none"/>
  <path d="m13 24h1v1h-1" display="none"/>
  <path d="m12 24h1v1h-1" display="none"/>
  <path d="m11 24h1v1h-1" display="none"/>
  <path d="m10 24h1v1h-1" display="none"/>
  <path d="m9 24h1v1h-1" display="none"/>
  <path d="m8 24h1v1h-1" display="none"/>
  <path d="m7 24h1v1h-1" display="none"/>
  <path d="m6 24h1v1h-1"/>
  <path d="m5 24h1v1h-1"/>
  <path d="m4 24h1v1h-1"/>
  <path d="m3 24h1v1h-1"/>
  <path d="m2 24h1v1h-1"/>
  <path d="m1 24h1v1h-1"/>
  <path d="m0 24h1v1h-1"/>
  <path d="m24 23h1v1h-1"/>
  <path d="m23 23h1v1h-1"/>
  <path d="m22 23h1v1h-1"/>
  <path d="m21 23h1v1h-1"/>
  <path d="m20 23h1v1h-1"/>
  <path d="m19 23h1v1h-1"/>
  <path d="m18 23h1v1h-1"/>
  <path d="m17 23h1v1h-1"/>
  <path d="m16 23h1v1h-1"/>
  <path d="m15 23h1v1h-1"/>
  <path d="m14.25 23.25 0.75-0.25v1h-1"/>
  <path d="m13 23 0.75-0.25 0.5 0.5-0.25 0.75h-1"/>
  <path d="m12 23h1v1h-1"/>
  <path d="m11 23h1v1h-1"/>
  <path d="m10 23h1v1h-1"/>
  <path d="m9 23h1v1h-1"/>
  <path d="m8 23h1v1h-1"/>
  <path d="m7 23h1v1h-1"/>
  <path d="m6 23h1v1h-1"/>
  <path d="m5 23h1v1h-1"/>
  <path d="m3.75 23.25 0.5-0.5 0.75 0.25v1h-1"/>
  <path d="M 3,23 3.75,23.25 4,24 H 3"/>
  <path d="m2 23h1v1h-1"/>
  <path d="m1 23h1v1h-1"/>
  <path d="m0 23h1v1h-1"/>
  <path d="m24 22h1v1h-1"/>
  <path d="m23 22h1v1h-1"/>
  <path d="m22 22h1v1h-1"/>
  <path d="m21 22h1v1h-1"/>
  <path d="m20 22h1v1h-1"/>
  <path d="m19 22h1v1h-1"/>
  <path d="m18 22h1v1h-1"/>
  <path d="m17.25 22.25 0.75-0.25v1h-1"/>
  <path d="m16 22 0.75-0.25 0.5 0.5-0.25 0.75h-1"/>
  <path d="m15 22h1v1h-1"/>
  <path d="m14.25 22.25 0.75-0.25v1l-0.75 0.25-0.5-0.5"/>
 </g>
 <g fill="#7f0000">
  <path d="m13.25 22.25 0.5-0.5 0.5 0.5-0.5 0.5-0.75 0.25"/>
  <path d="m12 22 0.75-0.25 0.5 0.5-0.25 0.75h-1"/>
  <path d="m11 22h1v1h-1"/>
  <path d="m10 22h1v1h-1"/>
  <path d="m9 22h1v1h-1"/>
  <path d="m8 22h1v1h-1"/>
  <path d="m7 22h1v1h-1"/>
  <path d="m6 22h1v1h-1"/>
  <path d="m4.75 22.25 0.5-0.5 0.75 0.25v1h-1"/>
  <path d="m3.75 22.25 0.5-0.5 0.5 0.5 0.25 0.75-0.75-0.25"/>
 </g>
 <g fill-opacity="0">
  <path d="m 3,22 0.75,0.25 0.5,0.5 -0.5,0.5 L 3,23"/>
  <path d="m1.75 22.25 0.5-0.5 0.75 0.25v1h-1"/>
  <path d="M 1,22 1.75,22.25 2,23 H 1"/>
  <path d="m0 22h1v1h-1"/>
  <path d="m24 21h1v1h-1"/>
  <path d="m23 21h1v1h-1"/>
  <path d="m22 21h1v1h-1"/>
  <path d="m21 21h1v1h-1"/>
  <path d="m20 21h1v1h-1"/>
  <path d="m19 21h1v1h-1"/>
  <path d="m18.25 21.25 0.75-0.25v1h-1"/>
  <path d="m17.25 21.25 0.5-0.5 0.5 0.5-0.25 0.75-0.75 0.25-0.5-0.5"/>
 </g>
 <g fill="#7f0000">
  <path d="m16.25 21.25 0.5-0.5 0.5 0.5-0.5 0.5-0.75 0.25"/>
  <path d="m15 21 0.75-0.25 0.5 0.5-0.25 0.75h-1"/>
  <path d="m14 21h1v1l-0.75 0.25-0.5-0.5"/>
  <path d="m13.25 21.25 0.75-0.25-0.25 0.75-0.5 0.5-0.5-0.5"/>
 </g>
 <g fill="#eb4b00">
  <path d="m12 21 0.75-0.25 0.5 0.5-0.5 0.5-0.75 0.25"/>
  <path d="m11 21h1v1h-1"/>
  <path d="m10 21h1v1h-1"/>
  <path d="m9 21h1v1h-1"/>
  <path d="m8 21h1v1h-1"/>
  <path d="m7 21h1v1h-1"/>
  <path d="m6 21h1v1h-1"/>
  <path d="m4.75 21.25 0.5-0.5 0.75 0.25v1l-0.75-0.25"/>
 </g>
 <g fill="#7f0000">
  <path d="m4 21 0.75 0.25 0.5 0.5-0.5 0.5-0.5-0.5"/>
  <path d="M 2.75,21.25 3.25,20.75 4,21 4.25,21.75 3.75,22.25 3,22"/>
  <path d="m1.75 21.25 0.5-0.5 0.5 0.5 0.25 0.75-0.75-0.25"/>
 </g>
 <g fill-opacity="0">
  <path d="m0.75 21.25 0.5-0.5 1 1-0.5 0.5-0.75-0.25"/>
  <path d="M 0,21 0.75,21.25 1,22 H 0"/>
  <path d="m24 20h1v1h-1"/>
  <path d="m23 20h1v1h-1"/>
  <path d="m22 20h1v1h-1"/>
  <path d="m21 20h1v1h-1"/>
  <path d="m20 20h1v1h-1"/>
  <path d="m19 20h1v1h-1"/>
  <path d="m18 20h1v1l-0.75 0.25-0.5-0.5"/>
 </g>
 <path d="m17.25 20.25 0.75-0.25-0.25 0.75-0.5 0.5-0.5-0.5" fill="#7f0000"/>
 <path d="m16.25 20.25 0.5-0.5 0.5 0.5-1 1-0.5-0.5" fill="#7f0000"/>
 <g fill="#ec5100">
  <path d="m15 20 0.75-0.25 0.5 0.5-0.5 0.5-0.75 0.25"/>
  <path d="m14 20h1v1h-1"/>
  <path d="m13 20h1v1l-0.75 0.25-0.5-0.5"/>
  <path d="m12 20h1l-0.25 0.75-0.75 0.25"/>
  <path d="m11 20h1v1h-1"/>
  <path d="m10 20h1v1h-1"/>
  <path d="m9 20h1v1h-1"/>
  <path d="m8 20h1v1h-1"/>
  <path d="m7 20h1v1h-1"/>
  <path d="m6 20h1v1h-1"/>
  <path d="m5 20h1v1l-0.75-0.25"/>
  <path d="M 4.25,20.25 5,20 5.25,20.75 4.75,21.25 4,21"/>
  <path d="m3.25 20.25 0.5-0.5 0.5 0.5-0.25 0.75-0.75-0.25"/>
 </g>
 <path d="m2 20 0.75-0.25 0.5 0.5v0.5l-0.5 0.5-0.5-0.5" fill="#7f0000"/>
 <path d="m1 20h1l0.25 0.75-0.5 0.5-0.5-0.5" fill="#7f0000"/>
 <g fill-opacity="0">
  <path d="m0 20h1l0.25 0.75-0.5 0.5-0.75-0.25"/>
  <path d="m24 19h1v1h-1"/>
  <path d="m23 19h1v1h-1"/>
  <path d="m22 19h1v1h-1"/>
  <path d="m21 19h1v1h-1"/>
  <path d="m20 19h1v1h-1"/>
  <path d="m19.25 19.25 0.75-0.25v1h-1"/>
  <path d="m18.25 19.25 0.5-0.5 0.5 0.5-0.25 0.75h-1"/>
 </g>
 <path d="m17 19 0.75-0.25 0.5 0.5-0.25 0.75-0.75 0.25-0.5-0.5" fill="#7f0000"/>
 <g fill="#ed5700">
  <path d="m16 19h1l-0.25 0.75-0.5 0.5-0.5-0.5"/>
  <path d="m15 19h1l-0.25 0.75-0.75 0.25"/>
  <path d="m14 19h1v1h-1"/>
  <path d="m13 19h1v1h-1"/>
  <path d="m12 19h1v1h-1"/>
  <path d="m11 19h1v1h-1"/>
  <path d="m10 19h1v1h-1"/>
  <path d="m9 19h1v1h-1"/>
  <path d="m8 19h1v1h-1"/>
  <path d="M 7.25,19.25 8,19 v 1 H 7"/>
  <path d="m6 19 0.75-0.25 0.5 0.5-0.25 0.75h-1"/>
  <path d="m5 19h1v1h-1"/>
  <path d="m4.25 19.25 0.75-0.25v1l-0.75 0.25-0.5-0.5"/>
 </g>
 <g fill="#7f0000">
  <path d="m3.25 19.25 0.5-0.5 0.5 0.5-1 1-0.5-0.5"/>
  <path d="m2 19 0.75-0.25 0.5 0.5-0.5 0.5-0.75 0.25"/>
  <path d="M 1.25,19.25 2,19 v 1 H 1"/>
 </g>
 <g fill-opacity="0">
  <path d="m0 19 0.75-0.25 0.5 0.5-0.25 0.75h-1"/>
  <path d="m24 18h1v1h-1"/>
  <path d="m23 18h1v1h-1"/>
  <path d="m22 18h1v1h-1"/>
  <path d="m21 18h1v1h-1"/>
  <path d="m20 18h1v1h-1"/>
  <path d="m19 18h1v1l-0.75 0.25-0.5-0.5"/>
 </g>
 <path d="m18.25 18.25 0.75-0.25-0.25 0.75-0.5 0.5-0.5-0.5" fill="#7f0000"/>
 <path d="m17.25 18.25 0.5-0.5 0.5 0.5-0.5 0.5-0.75 0.25" fill="#7f0000"/>
 <g fill="#ee5d00">
  <path d="m16 18 0.75-0.25 0.5 0.5-0.25 0.75h-1"/>
  <path d="m15 18h1v1h-1"/>
  <path d="m14 18h1v1h-1"/>
  <path d="m13 18h1v1h-1"/>
  <path d="m12 18h1v1h-1"/>
  <path d="m11.25 18.25 0.75-0.25v1h-1"/>
  <path d="m10 18 0.75-0.25 0.5 0.5-0.25 0.75h-1"/>
  <path d="m9 18h1v1h-1"/>
  <path d="m8 18h1v1h-1"/>
  <path d="m7.25 18.25 0.75-0.25v1l-0.75 0.25-0.5-0.5"/>
 </g>
 <g fill="#7f0000">
  <path d="m6.25 18.25 0.5-0.5 0.5 0.5-0.5 0.5-0.75 0.25"/>
  <path d="m5 18 0.75-0.25 0.5 0.5-0.25 0.75h-1"/>
  <path d="m4 18h1v1l-0.75 0.25-0.5-0.5"/>
  <path d="m3.25 18.25 0.75-0.25-0.25 0.75-0.5 0.5-0.5-0.5"/>
 </g>
 <g fill-opacity="0">
  <path d="m2 18 0.75-0.25 0.5 0.5-0.5 0.5-0.75 0.25"/>
  <path d="m1 18h1v1l-0.75 0.25-0.5-0.5"/>
  <path d="m0 18h1l-0.25 0.75-0.75 0.25"/>
  <path d="m24 17h1v1h-1"/>
  <path d="m23 17h1v1h-1"/>
  <path d="m22 17h1v1h-1"/>
  <path d="m21 17h1v1h-1"/>
  <path d="m20 17h1v1h-1"/>
  <path d="m19 17h1v1h-1"/>
 </g>
 <path d="m18 17h1v1l-0.75 0.25-0.5-0.5" fill="#7f0000"/>
 <g fill="#ef6200">
  <path d="m17 17h1l-0.25 0.75-0.5 0.5-0.5-0.5"/>
  <path d="m16 17h1l-0.25 0.75-0.75 0.25"/>
  <path d="m15 17h1v1h-1"/>
 </g>
 <g fill="#ef6300">
  <path d="m14 17h1v1h-1"/>
  <path d="m13.25 17.25 0.75-0.25v1h-1"/>
  <path d="m12 17 0.75-0.25 0.5 0.5-0.25 0.75h-1"/>
  <path d="m11.25 17.25 0.75-0.25v1l-0.75 0.25-0.5-0.5"/>
 </g>
 <g fill="#7f0000">
  <path d="m10 17 0.75-0.25 0.5 0.5-0.5 0.5-0.75 0.25"/>
  <path d="m9 17h1v1h-1"/>
  <path d="m8 17h1v1h-1"/>
  <path d="m7 17h1v1l-0.75 0.25-0.5-0.5"/>
  <path d="m5.75 17.25 0.5-0.5 0.75 0.25-0.25 0.75-0.5 0.5-0.5-0.5"/>
 </g>
 <g fill-opacity="0">
  <path d="m 5,17 0.75,0.25 v 0.5 L 5,18"/>
  <path d="m4 17h1v1h-1"/>
  <path d="m3 17h1v1l-0.75 0.25-0.5-0.5"/>
  <path d="M 1.75,17.25 2.25,16.75 3,17 2.75,17.75 2,18"/>
  <path d="M 1,17 1.75,17.25 2,18 H 1"/>
  <path d="m0 17h1v1h-1"/>
  <path d="m24 16h1v1h-1"/>
  <path d="m23 16h1v1h-1"/>
  <path d="m22 16h1v1h-1"/>
  <path d="m21 16h1v1h-1"/>
  <path d="m20 16h1v1h-1"/>
  <path d="m19 16h1v1h-1"/>
 </g>
 <path d="m18 16h1v1h-1" fill="#7f0000"/>
 <g fill="#f06800">
  <path d="m17 16h1v1h-1"/>
  <path d="m16 16h1v1h-1"/>
  <path d="m15 16h1v1h-1"/>
  <path d="m14.25 16.25 0.75-0.25v1h-1"/>
  <path d="m13.25 16.25 0.5-0.5 0.5 0.5-0.25 0.75-0.75 0.25-0.5-0.5"/>
 </g>
 <g fill="#7f0000">
  <path d="m12 16 0.75-0.25 0.5 0.5-0.5 0.5-0.75 0.25"/>
  <path d="m11.25 16.25 0.75-0.25v1l-0.75 0.25-0.5-0.5"/>
  <path d="m10 16 0.75-0.25 0.5 0.5-0.5 0.5-0.75 0.25"/>
  <path d="m9 16h1v1h-1"/>
  <path d="m8 16h1v1h-1"/>
  <path d="m7 16h1v1h-1"/>
  <path d="m6 16h1v1l-0.75-0.25"/>
  <path d="m5 16h1l0.25 0.75-0.5 0.5-0.75-0.25"/>
  <path d="m4 16h1v1h-1"/>
  <path d="m2.75 16.25 0.5-0.5 0.75 0.25v1h-1"/>
  <path d="m1.75 16.25 0.5-0.5 0.5 0.5 0.25 0.75-0.75-0.25"/>
 </g>
 <g fill-opacity="0">
  <path d="m0.75 16.25 0.5-0.5 1 1-0.5 0.5-0.75-0.25"/>
  <path d="M 0,16 0.75,16.25 1,17 H 0"/>
  <path d="m24 15h1v1h-1"/>
  <path d="m23 15h1v1h-1"/>
  <path d="m22 15h1v1h-1"/>
  <path d="m21 15h1v1h-1"/>
  <path d="m20 15h1v1h-1"/>
  <path d="m19 15h1v1h-1"/>
 </g>
 <path d="m18 15h1v1h-1" fill="#7f0000"/>
 <g fill="#f16e00">
  <path d="m17 15h1v1h-1"/>
  <path d="m16 15h1v1h-1"/>
  <path d="m15 15h1v1h-1"/>
  <path d="m14 15h1v1l-0.75 0.25-0.5-0.5"/>
 </g>
 <g fill="#7f0000">
  <path d="m13 15h1l-0.25 0.75-0.5 0.5-0.5-0.5"/>
  <path d="M 12.25,15.25 13,15 12.75,15.75 12,16"/>
  <path d="m11.25 15.25 0.5-0.5 0.5 0.5-0.25 0.75-0.75 0.25-0.5-0.5"/>
 </g>
 <g fill="#f16e00">
  <path d="m10 15 0.75-0.25 0.5 0.5-0.5 0.5-0.75 0.25"/>
  <path d="m9 15h1v1h-1"/>
  <path d="m8 15h1v1h-1"/>
 </g>
 <g fill="#f16f00">
  <path d="m7 15h1v1h-1"/>
  <path d="m6 15h1v1h-1"/>
  <path d="m5 15h1v1h-1"/>
  <path d="m4 15h1v1h-1"/>
  <path d="m2.75 15.25 0.5-0.5 0.75 0.25v1l-0.75-0.25"/>
 </g>
 <path d="m1.75 15.25 0.5-0.5 1 1-0.5 0.5-0.5-0.5" fill="#7f0000"/>
 <path d="m1 15 0.75 0.25 0.5 0.5-0.5 0.5-0.5-0.5" fill="#7f0000"/>
 <g fill-opacity="0">
  <path d="m0 15h1l0.25 0.75-0.5 0.5-0.75-0.25"/>
  <path d="m24 14h1v1h-1"/>
  <path d="m23 14h1v1h-1"/>
  <path d="m22 14h1v1h-1"/>
  <path d="m21 14h1v1h-1"/>
  <path d="m20 14h1v1h-1"/>
  <path d="m19 14h1v1h-1"/>
 </g>
 <path d="m18 14h1v1h-1" fill="#7f0000"/>
 <g fill="#f37400">
  <path d="m17 14h1v1h-1"/>
  <path d="m16 14h1v1h-1"/>
  <path d="m15 14h1v1h-1"/>
  <path d="m14 14h1v1h-1"/>
 </g>
 <path d="m13 14h1v1h-1" fill="#7f0000"/>
 <path d="m12 14h1v1l-0.75 0.25-0.5-0.5" fill="#7f0000"/>
 <g fill="#f37400">
  <path d="m11 14h1l-0.25 0.75-0.5 0.5-0.5-0.5"/>
  <path d="m10 14h1l-0.25 0.75-0.75 0.25"/>
  <path d="m9 14h1v1h-1"/>
  <path d="m8 14h1v1h-1"/>
  <path d="m7 14h1v1h-1"/>
  <path d="m6 14h1v1h-1"/>
  <path d="m5 14h1v1h-1"/>
 </g>
 <g fill="#f37500">
  <path d="m4 14h1v1h-1"/>
  <path d="m3 14h1v1l-0.75-0.25"/>
  <path d="m2 14h1l0.25 0.75-0.5 0.5-0.5-0.5"/>
 </g>
 <path d="m1 14h1l0.25 0.75-0.5 0.5-0.75-0.25" fill="#7f0000"/>
 <g fill-opacity="0">
  <path d="m0 14h1v1h-1"/>
  <path d="m24 13h1v1h-1"/>
  <path d="m23 13h1v1h-1"/>
  <path d="m22 13h1v1h-1"/>
  <path d="m21 13h1v1h-1"/>
  <path d="m20 13h1v1h-1"/>
  <path d="m19 13h1v1h-1"/>
 </g>
 <path d="m18 13h1v1h-1" fill="#7f0000"/>
 <g fill="#f47a00">
  <path d="m17 13h1v1h-1"/>
  <path d="m16 13h1v1h-1"/>
  <path d="m15 13h1v1h-1"/>
  <path d="m14 13h1v1h-1"/>
 </g>
 <path d="m13 13h1v1h-1" fill="#7f0000"/>
 <path d="m12 13h1v1h-1" fill="#7f0000"/>
 <g fill="#f47a00">
  <path d="m11 13h1v1h-1"/>
  <path d="m10 13h1v1h-1"/>
  <path d="m9 13h1v1h-1"/>
  <path d="m8 13h1v1h-1"/>
  <path d="m7 13h1v1h-1"/>
  <path d="m6 13h1v1h-1"/>
  <path d="m5 13h1v1h-1"/>
  <path d="m4 13h1v1h-1"/>
  <path d="M 3.25,13.25 4,13 v 1 H 3"/>
  <path d="m2.25 13.25 0.5-0.5 0.5 0.5-0.25 0.75h-1"/>
 </g>
 <path d="m1 13 0.75-0.25 0.5 0.5-0.25 0.75h-1" fill="#7f0000"/>
 <g fill-opacity="0">
  <path d="m0 13h1v1h-1"/>
  <path d="m24.25 12.25 0.75-0.25v1h-1"/>
  <path d="m23 12 0.75-0.25 0.5 0.5-0.25 0.75h-1"/>
  <path d="m22 12h1v1h-1"/>
  <path d="m21 12h1v1h-1"/>
  <path d="m20 12h1v1h-1"/>
  <path d="m19.25 12.25 0.75-0.25v1h-1"/>
 </g>
 <path d="m18 12 0.75-0.25 0.5 0.5-0.25 0.75h-1" fill="#7f0000"/>
 <g fill="#f58000">
  <path d="m17 12h1v1h-1"/>
  <path d="m16 12h1v1h-1"/>
  <path d="m15 12h1v1h-1"/>
  <path d="m14 12h1v1h-1"/>
 </g>
 <path d="m13 12h1v1h-1" fill="#7f0000"/>
 <path d="m11.75 12.25 0.5-0.5 0.75 0.25v1h-1" fill="#7f0000"/>
 <g fill="#f58000">
  <path d="m10.75 12.25 0.5-0.5 0.5 0.5 0.25 0.75h-1"/>
  <path d="m10 12 0.75 0.25 0.25 0.75h-1"/>
  <path d="m9 12h1v1h-1"/>
  <path d="M 8.25,12.25 9,12 v 1 H 8"/>
  <path d="m7 12 0.75-0.25 0.5 0.5-0.25 0.75h-1"/>
  <path d="m6 12h1v1h-1"/>
  <path d="m5 12h1v1h-1"/>
  <path d="m4 12h1v1h-1"/>
  <path d="m3.25 12.25 0.75-0.25v1l-0.75 0.25-0.5-0.5"/>
 </g>
 <path d="m2.25 12.25 0.5-0.5 0.5 0.5-1 1-0.5-0.5" fill="#7f0000"/>
 <path d="m1.25 12.25 0.5-0.5 0.5 0.5-0.5 0.5-0.75 0.25" fill="#7f0000"/>
 <path d="m0 12 0.75-0.25 0.5 0.5-0.25 0.75h-1" fill-opacity="0"/>
 <path d="m24 11h1v1l-0.75 0.25-0.5-0.5" fill-opacity="0"/>
 <g fill="#7f0000">
  <path d="M 23.25,11.25 24,11 23.75,11.75 23,12"/>
  <path d="m22 11 0.75-0.25 0.5 0.5-0.25 0.75h-1"/>
  <path d="m21 11h1v1h-1"/>
  <path d="m20 11h1v1h-1"/>
  <path d="m19 11h1v1l-0.75 0.25-0.5-0.5"/>
  <path d="M 18.25,11.25 19,11 18.75,11.75 18,12"/>
 </g>
 <g fill="#f68500">
  <path d="m17 11 0.75-0.25 0.5 0.5-0.25 0.75h-1"/>
  <path d="m16 11h1v1h-1"/>
  <path d="m15 11h1v1h-1"/>
  <path d="m13.75 11.25 0.5-0.5 0.75 0.25v1h-1"/>
 </g>
 <g fill="#7f0000">
  <path d="m12.75 11.25 0.5-0.5 0.5 0.5 0.25 0.75h-1"/>
  <path d="m12 11 0.75 0.25 0.25 0.75-0.75-0.25"/>
  <path d="m11 11h1l0.25 0.75-0.5 0.5-0.5-0.5"/>
 </g>
 <g fill="#f68500">
  <path d="m10 11h1l0.25 0.75-0.5 0.5-0.75-0.25"/>
  <path d="m9 11h1v1h-1"/>
  <path d="m7.75 11.25 0.5-0.5 0.75 0.25v1l-0.75 0.25-0.5-0.5"/>
 </g>
 <g fill="#7f0000">
  <path d="m 7,11 0.75,0.25 v 0.5 L 7,12"/>
  <path d="m6 11h1v1h-1"/>
  <path d="m5 11h1v1h-1"/>
  <path d="m4 11h1v1h-1"/>
  <path d="m2.75 11.25 0.5-0.5 0.75 0.25v1l-0.75 0.25-0.5-0.5"/>
  <path d="m1.75 11.25 0.5-0.5 0.5 0.5v0.5l-0.5 0.5-0.5-0.5"/>
 </g>
 <g fill-opacity="0">
  <path d="m0.75 11.25 0.5-0.5 0.5 0.5v0.5l-0.5 0.5-0.5-0.5"/>
  <path d="m 0,11 0.75,0.25 v 0.5 L 0,12"/>
  <path d="m24 10h1v1h-1"/>
 </g>
 <path d="m23 10h1v1l-0.75 0.25-0.5-0.5" fill="#7f0000"/>
 <g fill="#f78b00">
  <path d="m22 10h1l-0.25 0.75-0.75 0.25"/>
  <path d="m21 10h1v1h-1"/>
  <path d="m20 10h1v1h-1"/>
  <path d="m19 10h1v1h-1"/>
  <path d="m18 10h1v1l-0.75 0.25-0.5-0.5"/>
  <path d="m17 10h1l-0.25 0.75-0.75 0.25"/>
  <path d="m16 10h1v1h-1"/>
  <path d="m15 10h1v1h-1"/>
  <path d="m14 10h1v1l-0.75-0.25"/>
  <path d="m13 10h1l0.25 0.75-0.5 0.5-0.5-0.5"/>
 </g>
 <path d="m12 10h1l0.25 0.75-0.5 0.5-0.75-0.25" fill="#7f0000"/>
 <path d="m11 10h1v1h-1" fill="#7f0000"/>
 <g fill="#f78b00">
  <path d="m10 10h1v1h-1"/>
  <path d="m9 10h1v1h-1"/>
  <path d="m8 10h1v1l-0.75-0.25"/>
  <path d="m7 10h1l0.25 0.75-0.5 0.5-0.75-0.25"/>
  <path d="m6 10h1v1h-1"/>
  <path d="m5 10h1v1h-1"/>
 </g>
 <g>
  <path d="m4 10h1v1h-1" fill="#f78c00"/>
  <path d="m2.75 10.25 0.5-0.5 0.75 0.25v1l-0.75-0.25" fill="#f78c00"/>
  <path d="m1.75 10.25 0.5-0.5 1 1-0.5 0.5-0.5-0.5" fill="#7f0000"/>
  <path d="m1 10 0.75 0.25 0.5 0.5-0.5 0.5-0.5-0.5" fill="#7f0000"/>
 </g>
 <path d="m0 10h1l0.25 0.75-0.5 0.5-0.75-0.25" fill-opacity="0"/>
 <path d="m24 9h1v1h-1" fill-opacity="0"/>
 <path d="m23 9h1v1h-1" fill="#7f0000"/>
 <g fill="#f89100">
  <path d="m22 9h1v1h-1"/>
  <path d="m21 9h1v1h-1"/>
  <path d="m20 9h1v1h-1"/>
  <path d="m19 9h1v1h-1"/>
  <path d="m18 9h1v1h-1"/>
  <path d="m17 9h1v1h-1"/>
  <path d="m16 9h1v1h-1"/>
  <path d="m15 9h1v1h-1"/>
  <path d="m14 9h1v1h-1"/>
  <path d="m13 9h1v1h-1"/>
 </g>
 <path d="m12 9h1v1h-1" fill="#7f0000"/>
 <path d="m10.75 9.25 0.5-0.5 0.75 0.25v1h-1" fill="#7f0000"/>
 <g fill="#f89100">
  <path d="m9.75 9.25 0.5-0.5 0.5 0.5 0.25 0.75h-1"/>
  <path d="M 9,9 9.75,9.25 10,10 H 9"/>
  <path d="m8 9h1v1h-1"/>
  <path d="m7 9h1v1h-1"/>
  <path d="m6 9h1v1h-1"/>
  <path d="m5 9h1v1h-1"/>
  <path d="m4 9h1v1h-1"/>
  <path d="m3 9h1v1l-0.75-0.25"/>
  <path d="m2 9h1l0.25 0.75-0.5 0.5-0.5-0.5"/>
 </g>
 <path d="m1 9h1l0.25 0.75-0.5 0.5-0.75-0.25" fill="#7f0000"/>
 <path d="m0 9h1v1h-1" fill-opacity="0"/>
 <path d="m24 8h1v1h-1" fill-opacity="0"/>
 <path d="m22.75 8.25 0.5-0.5 0.75 0.25v1h-1" fill="#7f0000"/>
 <g fill="#f99700">
  <path d="M 22,8 22.75,8.25 23,9 h -1"/>
  <path d="m21 8h1v1h-1"/>
  <path d="m20 8h1v1h-1"/>
  <path d="m19 8h1v1h-1"/>
  <path d="m17.75 8.25 0.5-0.5 0.75 0.25v1h-1"/>
  <path d="M 17,8 17.75,8.25 18,9 h -1"/>
  <path d="m16 8h1v1h-1"/>
  <path d="m15 8h1v1h-1"/>
  <path d="m14 8h1v1h-1"/>
  <path d="m13 8h1v1h-1"/>
 </g>
 <g fill="#7f0000">
  <path d="m12 8h1v1h-1"/>
  <path d="m11 8h1v1l-0.75-0.25"/>
  <path d="m9.75 8.25 0.5-0.5 0.75 0.25 0.25 0.75-0.5 0.5-0.5-0.5"/>
 </g>
 <g fill="#f99700">
  <path d="m 9,8 0.75,0.25 0.5,0.5 -0.5,0.5 L 9,9"/>
  <path d="m8 8h1v1h-1"/>
  <path d="m7 8h1v1h-1"/>
  <path d="m5.75 8.25 0.5-0.5 0.75 0.25v1h-1"/>
  <path d="M 5,8 5.75,8.25 6,9 H 5"/>
  <path d="m4 8h1v1h-1"/>
  <path d="m3 8h1v1h-1"/>
  <path d="m2 8h1v1h-1"/>
 </g>
 <path d="m1 8h1v1h-1" fill="#7f0000"/>
 <path d="m0 8h1v1h-1" fill-opacity="0"/>
 <path d="m24 7h1v1h-1" fill-opacity="0"/>
 <g fill="#7f0000">
  <path d="m23.25 7.25 0.75-0.25v1l-0.75-0.25"/>
  <path d="m22 7 0.75-0.25 0.5 0.5v0.5l-0.5 0.5-0.75-0.25"/>
  <path d="m21 7h1v1h-1"/>
  <path d="m20 7h1v1h-1"/>
  <path d="m19 7h1v1h-1"/>
  <path d="m18.25 7.25 0.75-0.25v1l-0.75-0.25"/>
 </g>
 <g fill="#fa9d00">
  <path d="m17 7 0.75-0.25 0.5 0.5v0.5l-0.5 0.5-0.75-0.25"/>
  <path d="m16 7h1v1h-1"/>
  <path d="m15 7h1v1h-1"/>
  <path d="m14 7h1v1h-1"/>
  <path d="m13 7h1v1h-1"/>
 </g>
 <g fill="#7f0000">
  <path d="m12 7h1v1h-1"/>
  <path d="m11.25 7.25 0.75-0.25v1h-1"/>
  <path d="m10 7 0.75-0.25 0.5 0.5-0.25 0.75-0.75-0.25"/>
  <path d="m9 7h1l0.25 0.75-0.5 0.5-0.75-0.25"/>
  <path d="m8 7h1v1h-1"/>
  <path d="m7 7h1v1h-1"/>
  <path d="M 6.25,7.25 7,7 V 8 L 6.25,7.75"/>
 </g>
 <g fill="#fb9d00">
  <path d="m5 7 0.75-0.25 0.5 0.5v0.5l-0.5 0.5-0.75-0.25"/>
  <path d="m4 7h1v1h-1"/>
  <path d="m3 7h1v1h-1"/>
  <path d="m2 7h1v1h-1"/>
 </g>
 <path d="m1 7h1v1h-1" fill="#7f0000"/>
 <path d="m0 7h1v1h-1" fill-opacity="0"/>
 <path d="m24 6h1v1h-1" fill-opacity="0"/>
 <path d="m23 6h1v1l-0.75 0.25-0.5-0.5" fill="#7f0000"/>
 <g fill="#fca200">
  <path d="m22 6h1l-0.25 0.75-0.75 0.25"/>
  <path d="m21 6h1v1h-1"/>
  <path d="m20 6h1v1h-1"/>
  <path d="m19 6h1v1h-1"/>
  <path d="m18 6h1v1l-0.75 0.25-0.5-0.5"/>
  <path d="m17 6h1l-0.25 0.75-0.75 0.25"/>
 </g>
 <g fill="#fca300">
  <path d="m16 6h1v1h-1"/>
  <path d="m15 6h1v1h-1"/>
  <path d="m14 6h1v1h-1"/>
  <path d="m13 6h1v1h-1"/>
 </g>
 <path d="m12 6h1v1h-1" fill="#7f0000"/>
 <path d="m11 6h1v1l-0.75 0.25-0.5-0.5" fill="#7f0000"/>
 <g fill="#fca300">
  <path d="m10 6h1l-0.25 0.75-0.75 0.25"/>
  <path d="m9 6h1v1h-1"/>
  <path d="m8 6h1v1h-1"/>
  <path d="m7 6h1v1h-1"/>
  <path d="m6 6h1v1l-0.75 0.25-0.5-0.5"/>
  <path d="M 5,6 H 6 L 5.75,6.75 5,7"/>
  <path d="m4 6h1v1h-1"/>
  <path d="m3 6h1v1h-1"/>
  <path d="m2 6h1v1h-1"/>
 </g>
 <path d="m1 6h1v1h-1" fill="#7f0000"/>
 <path d="m0 6h1v1h-1" fill-opacity="0"/>
 <path d="m24 5h1v1h-1" fill-opacity="0"/>
 <path d="m23 5h1v1h-1" fill="#7f0000"/>
 <g fill="#fda800">
  <path d="m22 5h1v1h-1"/>
  <path d="m21 5h1v1h-1"/>
  <path d="m20 5h1v1h-1"/>
  <path d="m19 5h1v1h-1"/>
  <path d="m18 5h1v1h-1"/>
  <path d="m17 5h1v1h-1"/>
  <path d="m16 5h1v1h-1"/>
  <path d="m15 5h1v1h-1"/>
  <path d="m14.25 5.25 0.75-0.25v1h-1"/>
 </g>
 <g>
  <path d="m13.25 5.25 0.5-0.5 0.5 0.5-0.25 0.75h-1" fill="#fda900"/>
  <path d="m12.25 5.25 0.5-0.5 0.5 0.5-0.25 0.75h-1" fill="#7f0000"/>
  <path d="m11.25 5.25 0.5-0.5 0.5 0.5-0.25 0.75h-1" fill="#7f0000"/>
 </g>
 <g fill="#fda900">
  <path d="m10 5 0.75-0.25 0.5 0.5-0.25 0.75h-1"/>
  <path d="m9 5h1v1h-1"/>
  <path d="m8 5h1v1h-1"/>
  <path d="m7 5h1v1h-1"/>
  <path d="m6 5h1v1h-1"/>
  <path d="m5 5h1v1h-1"/>
  <path d="m4 5h1v1h-1"/>
  <path d="M 3.25,5.25 4,5 V 6 H 3"/>
  <path d="m 2.25,5.25 0.5,-0.5 0.5,0.5 L 3,6 H 2"/>
 </g>
 <path d="M 1,5 1.75,4.75 2.25,5.25 2,6 H 1" fill="#7f0000"/>
 <path d="m0 5h1v1h-1" fill-opacity="0"/>
 <path d="m24 4h1v1h-1" fill-opacity="0"/>
 <path d="m22.75 4.25 0.5-0.5 0.75 0.25v1h-1" fill="#7f0000"/>
 <g fill="#feae00">
  <path d="M 22,4 22.75,4.25 23,5 h -1"/>
  <path d="m21 4h1v1h-1"/>
  <path d="m20 4h1v1h-1"/>
  <path d="m19 4h1v1h-1"/>
  <path d="m18 4h1v1h-1"/>
  <path d="m17 4h1v1h-1"/>
  <path d="m16 4h1v1h-1"/>
  <path d="m15 4h1v1h-1"/>
  <path d="m14.25 4.25 0.75-0.25v1l-0.75 0.25-0.5-0.5"/>
 </g>
 <g>
  <path d="m13 4 0.75-0.25 0.5 0.5-1 1-0.5-0.5" fill="#7f0000"/>
  <path d="m11.75 4.25 0.5-0.5 0.75 0.25-0.25 0.75-0.5 0.5-0.5-0.5" fill="#7f0000"/>
  <path d="m11 4 0.75 0.25v0.5l-0.5 0.5-0.5-0.5" fill="#feae00"/>
  <path d="m10 4h1l-0.25 0.75-0.75 0.25" fill="#feae00"/>
 </g>
 <g fill="#feaf00">
  <path d="m9 4h1v1h-1"/>
  <path d="m8 4h1v1h-1"/>
  <path d="m7 4h1v1h-1"/>
  <path d="m6 4h1v1h-1"/>
  <path d="m5 4h1v1h-1"/>
  <path d="m4 4h1v1h-1"/>
  <path d="m3.25 4.25 0.75-0.25v1l-0.75 0.25-0.5-0.5"/>
 </g>
 <path d="m2.25 4.25 0.5-0.5 0.5 0.5-1 1-0.5-0.5" fill="#7f0000"/>
 <path d="m 1.25,4.25 0.5,-0.5 0.5,0.5 -0.5,0.5 L 1,5" fill="#7f0000"/>
 <path d="M 0,4 0.75,3.75 1.25,4.25 1,5 H 0" fill-opacity="0"/>
 <path d="m23.75 3.25 0.5-0.5 0.75 0.25v1h-1" fill-opacity="0"/>
 <g fill="#7f0000">
  <path d="M 23,3 23.75,3.25 24,4 23.25,3.75"/>
  <path d="m22 3h1l0.25 0.75-0.5 0.5-0.75-0.25"/>
  <path d="m21 3h1v1h-1"/>
  <path d="m20 3h1v1h-1"/>
  <path d="m19 3h1v1h-1"/>
  <path d="m18 3h1v1h-1"/>
  <path d="m17 3h1v1h-1"/>
  <path d="m16 3h1v1h-1"/>
  <path d="m15 3h1v1h-1"/>
  <path d="m14 3h1v1l-0.75 0.25-0.5-0.5"/>
  <path d="m13 3h1l-0.25 0.75-0.75 0.25"/>
  <path d="m12 3h1v1l-0.75-0.25"/>
  <path d="m11 3h1l0.25 0.75-0.5 0.5-0.75-0.25"/>
  <path d="m10 3h1v1h-1"/>
  <path d="m9 3h1v1h-1"/>
  <path d="m8 3h1v1h-1"/>
  <path d="m7 3h1v1h-1"/>
  <path d="m6 3h1v1h-1"/>
  <path d="m5 3h1v1h-1"/>
  <path d="m4 3h1v1h-1"/>
  <path d="m3 3h1v1l-0.75 0.25-0.5-0.5"/>
  <path d="M 2.25,3.25 3,3 2.75,3.75 2.25,4.25 1.75,3.75"/>
 </g>
 <g fill-opacity="0">
  <path d="m1 3 0.75-0.25 0.5 0.5-1 1-0.5-0.5"/>
  <path d="M 0,3 H 1 L 0.75,3.75 0,4"/>
  <path d="m24 2h1v1l-0.75-0.25"/>
  <path d="m23 2h1l0.25 0.75-0.5 0.5-0.75-0.25"/>
  <path d="m22 2h1v1h-1"/>
  <path d="m21 2h1v1h-1"/>
  <path d="m20 2h1v1h-1"/>
  <path d="m19 2h1v1h-1"/>
  <path d="m18 2h1v1h-1"/>
  <path d="m17 2h1v1h-1"/>
  <path d="m16 2h1v1h-1"/>
  <path d="m15 2h1v1h-1"/>
  <path d="m14 2h1v1h-1"/>
  <path d="m13 2h1v1h-1"/>
  <path d="m12 2h1v1h-1"/>
  <path d="m11 2h1v1h-1"/>
  <path d="m10 2h1v1h-1"/>
  <path d="m9 2h1v1h-1"/>
  <path d="m8 2h1v1h-1"/>
  <path d="m7 2h1v1h-1"/>
  <path d="m6 2h1v1h-1"/>
  <path d="m5 2h1v1h-1"/>
  <path d="m4 2h1v1h-1"/>
  <path d="m3 2h1v1h-1"/>
  <path d="m2 2h1v1l-0.75 0.25-0.5-0.5"/>
  <path d="M 1,2 H 2 L 1.75,2.75 1,3"/>
  <path d="m0 2h1v1h-1"/>
  <path d="m24 1h1v1h-1"/>
  <path d="m23 1h1v1h-1"/>
  <path d="m22 1h1v1h-1"/>
  <path d="m21 1h1v1h-1"/>
  <path d="m20 1h1v1h-1"/>
  <path d="m19 1h1v1h-1"/>
  <path d="m18 1h1v1h-1"/>
  <path d="m17 1h1v1h-1"/>
  <path d="m16 1h1v1h-1"/>
  <path d="m15 1h1v1h-1"/>
  <path d="m14 1h1v1h-1"/>
  <path d="m13 1h1v1h-1"/>
  <path d="m12 1h1v1h-1"/>
  <path d="m11 1h1v1h-1"/>
  <path d="m10 1h1v1h-1"/>
  <path d="m9 1h1v1h-1"/>
  <path d="m8 1h1v1h-1"/>
  <path d="m7 1h1v1h-1"/>
  <path d="m6 1h1v1h-1"/>
  <path d="m5 1h1v1h-1"/>
  <path d="m4 1h1v1h-1"/>
  <path d="m3 1h1v1h-1"/>
  <path d="m2 1h1v1h-1"/>
  <path d="m1 1h1v1h-1"/>
  <path d="m0 1h1v1h-1"/>
  <path d="m24 0h1v1h-1"/>
  <path d="m23 0h1v1h-1"/>
  <path d="m22 0h1v1h-1"/>
  <path d="m21 0h1v1h-1"/>
  <path d="m20 0h1v1h-1"/>
  <path d="m19 0h1v1h-1"/>
  <path d="m18 0h1v1h-1"/>
  <path d="m17 0h1v1h-1"/>
  <path d="m16 0h1v1h-1"/>
  <path d="m15 0h1v1h-1"/>
  <path d="m14 0h1v1h-1"/>
  <path d="m13 0h1v1h-1"/>
  <path d="m12 0h1v1h-1"/>
  <path d="m11 0h1v1h-1"/>
  <path d="m10 0h1v1h-1"/>
  <path d="m9 0h1v1h-1"/>
  <path d="m8 0h1v1h-1"/>
  <path d="m7 0h1v1h-1"/>
  <path d="m6 0h1v1h-1"/>
  <path d="m5 0h1v1h-1"/>
  <path d="m4 0h1v1h-1"/>
  <path d="m3 0h1v1h-1"/>
  <path d="m2 0h1v1h-1"/>
  <path d="m1 0h1v1h-1"/>
  <path d="m0 0h1v1h-1"/>
 </g>
</svg>
